<?xml version="1.0" standalone="no"?>
<!DOCTYPE svg PUBLIC "-//W3C//DTD SVG 20010904//EN"
 "http://www.w3.org/TR/2001/REC-SVG-20010904/DTD/svg10.dtd">
<svg version="1.0" xmlns="http://www.w3.org/2000/svg"
 width="1184.000000pt" height="1184.000000pt" viewBox="0 0 1184.000000 1184.000000"
 preserveAspectRatio="xMidYMid meet">
<metadata>
Created by potrace 1.11, written by Peter Selinger 2001-2013
</metadata>
<g transform="translate(0.000000,1184.000000) scale(0.100000,-0.100000)"
fill="#000000" stroke="none">
<path d="M4838 10715 c-2 -1 -32 -6 -68 -9 -36 -4 -74 -9 -85 -11 -22 -5 -91
-16 -115 -19 -9 -1 -21 -5 -28 -10 -6 -4 -12 -5 -12 -2 0 2 -24 -2 -52 -10
-29 -8 -62 -17 -72 -19 -37 -8 -91 -28 -102 -36 -6 -5 -13 -7 -16 -4 -5 6
-259 -93 -268 -104 -3 -3 -14 -8 -25 -9 -11 -2 -22 -7 -25 -10 -3 -4 -52 -31
-110 -61 -58 -29 -112 -59 -120 -65 -8 -7 -32 -21 -52 -31 -21 -11 -38 -23
-38 -27 0 -5 -4 -8 -9 -8 -20 0 -342 -232 -349 -251 -2 -5 -10 -9 -17 -9 -7 0
-15 -3 -17 -7 -1 -5 -34 -35 -73 -68 -183 -156 -448 -422 -600 -601 -22 -26
-44 -52 -50 -58 -5 -6 -28 -34 -50 -61 -48 -61 -76 -93 -92 -111 -7 -7 -13
-17 -13 -22 0 -6 -3 -12 -8 -14 -12 -5 -103 -125 -225 -298 -64 -91 -121 -170
-127 -177 -5 -7 -10 -14 -10 -17 0 -3 -20 -34 -45 -70 -25 -37 -45 -68 -45
-71 0 -3 -8 -14 -17 -25 -10 -11 -16 -23 -15 -27 2 -3 -1 -9 -6 -12 -5 -3 -31
-42 -58 -86 -26 -44 -54 -86 -61 -93 -7 -7 -13 -18 -13 -24 0 -5 -13 -29 -29
-53 -16 -24 -32 -53 -36 -64 -3 -12 -11 -21 -16 -21 -5 0 -9 -4 -9 -8 0 -13
-103 -196 -115 -204 -5 -4 -7 -8 -2 -8 4 0 -4 -18 -18 -40 -14 -22 -25 -44
-25 -49 0 -5 -3 -11 -7 -13 -5 -1 -23 -34 -42 -73 -19 -38 -38 -73 -43 -76 -5
-3 -9 -9 -9 -13 1 -10 -32 -80 -48 -98 -8 -10 -11 -18 -7 -18 4 0 -2 -13 -13
-29 -12 -16 -21 -36 -21 -44 0 -8 -7 -20 -15 -27 -8 -7 -15 -16 -15 -21 0 -5
-23 -57 -51 -117 -59 -124 -95 -201 -151 -327 -22 -49 -52 -115 -65 -145 -14
-30 -31 -71 -38 -90 -8 -19 -34 -84 -59 -144 -25 -60 -43 -112 -40 -117 3 -5
1 -9 -4 -9 -10 0 -35 -54 -35 -76 0 -8 -4 -14 -9 -14 -5 0 -6 -4 -3 -10 3 -5
2 -10 -2 -10 -5 0 -9 -10 -10 -22 -1 -11 -6 -24 -10 -27 -4 -3 -9 -13 -11 -21
-2 -8 -21 -62 -43 -120 -22 -58 -41 -113 -42 -122 -1 -10 -4 -18 -8 -18 -6 0
-19 -40 -24 -70 0 -3 -4 -11 -8 -17 -5 -7 -10 -21 -12 -30 -3 -17 -59 -182
-72 -213 -3 -8 -7 -19 -8 -25 -2 -5 -13 -41 -26 -80 -13 -38 -24 -73 -25 -77
-1 -5 -2 -9 -4 -10 -2 -3 -5 -17 -14 -55 -2 -12 -10 -32 -17 -45 -7 -13 -11
-23 -10 -23 4 0 -15 -69 -39 -146 -11 -34 -22 -72 -24 -83 -2 -12 -9 -34 -16
-51 -6 -16 -11 -31 -11 -32 1 -3 0 -6 -4 -20 -1 -5 -5 -26 -10 -48 -4 -22 -11
-44 -15 -50 -5 -5 -9 -23 -11 -40 -2 -16 -6 -34 -10 -40 -3 -5 -10 -28 -14
-50 -9 -45 -12 -54 -15 -57 -1 -2 -3 -11 -5 -20 -2 -9 -11 -48 -20 -85 -10
-37 -19 -75 -20 -83 -2 -8 -4 -17 -5 -20 -1 -3 -2 -8 -1 -12 0 -4 -4 -20 -10
-35 -6 -15 -12 -42 -13 -59 -1 -16 -5 -35 -8 -40 -4 -5 -9 -29 -13 -54 -4 -25
-8 -47 -10 -51 -2 -3 -7 -21 -10 -40 -3 -19 -17 -89 -31 -157 -23 -119 -26
-136 -39 -209 -20 -122 -23 -143 -34 -213 -12 -76 -18 -118 -25 -180 -3 -25
-8 -65 -12 -90 -8 -63 -11 -95 -18 -180 -4 -41 -8 -88 -11 -105 -25 -171 -27
-887 -1 -1005 3 -14 7 -45 10 -70 3 -25 8 -58 11 -75 3 -16 7 -39 9 -50 15
-82 20 -101 29 -112 5 -7 7 -13 4 -13 -18 0 80 -234 115 -277 6 -7 8 -13 4
-13 -3 0 1 -8 9 -18 8 -9 14 -19 13 -22 -2 -7 83 -91 129 -128 46 -36 158 -94
176 -91 1 0 14 -4 30 -10 49 -19 80 -23 212 -26 127 -3 151 -1 325 30 108 20
118 22 158 34 18 5 36 10 40 11 14 1 87 21 102 27 8 3 21 7 27 9 7 1 43 12 80
24 38 12 75 24 83 25 20 5 129 43 155 55 11 4 56 20 100 35 70 23 241 85 285
102 8 4 17 7 20 7 3 1 37 13 75 28 258 97 323 121 348 125 15 3 27 9 27 14 0
5 3 8 8 7 11 -2 66 14 78 23 6 5 19 10 30 12 10 2 26 7 34 10 8 3 51 18 95 32
44 15 88 31 98 36 10 5 22 7 27 4 6 -4 10 -2 10 3 0 5 6 9 13 9 6 0 48 13 92
28 44 15 85 28 90 29 13 3 122 35 155 47 14 4 45 13 70 19 25 6 52 14 60 17 8
4 17 7 20 8 12 3 67 16 85 19 11 2 40 10 65 17 25 7 50 13 55 15 73 17 114 27
135 30 14 3 41 9 60 14 52 14 102 23 130 24 14 1 27 4 30 8 3 4 25 9 48 10 23
2 42 5 42 8 0 3 12 6 28 6 15 1 44 4 65 8 20 3 54 9 75 12 20 3 48 7 62 9 14
3 50 7 80 10 30 3 73 7 95 10 53 6 202 16 291 20 40 1 78 6 84 10 7 5 11 4 8
-1 -5 -7 143 -11 177 -4 6 1 14 2 19 1 6 -1 51 -4 100 -7 112 -5 205 -12 271
-20 28 -3 73 -7 100 -9 28 -1 61 -5 75 -9 14 -3 45 -8 70 -10 25 -3 54 -7 65
-10 11 -3 36 -8 55 -10 57 -8 118 -19 223 -41 12 -2 54 -11 92 -20 39 -9 84
-18 100 -22 17 -3 38 -10 49 -15 13 -7 16 -7 11 2 -5 8 -2 9 11 2 17 -9 130
-42 161 -46 7 -1 15 -5 19 -8 3 -4 12 -4 20 -1 8 3 14 1 14 -4 0 -5 8 -9 18
-10 44 -5 82 -16 82 -25 0 -5 4 -7 8 -4 7 4 135 -30 192 -51 8 -4 20 -7 27 -9
14 -2 81 -23 103 -31 36 -13 386 -134 400 -138 8 -2 96 -34 195 -70 99 -37
185 -68 190 -69 6 -1 20 -7 32 -14 12 -7 26 -12 32 -12 5 0 22 -5 38 -12 15
-6 33 -12 38 -14 6 -1 35 -12 65 -24 30 -12 69 -26 85 -32 17 -5 39 -14 50
-18 11 -5 39 -14 63 -21 23 -7 42 -15 42 -19 0 -4 6 -7 13 -8 29 -2 146 -40
162 -52 6 -5 12 -8 15 -8 6 1 21 -3 147 -42 56 -17 110 -33 120 -35 10 -2 18
-4 18 -5 0 -2 35 -11 55 -14 9 -1 20 -5 25 -8 11 -7 103 -22 107 -17 2 1 13
-3 24 -9 12 -6 42 -14 65 -17 24 -2 58 -7 74 -10 17 -3 101 -8 187 -10 176 -5
210 2 337 62 133 64 168 101 374 395 66 94 177 279 177 294 0 7 4 14 8 16 5 2
46 80 92 173 45 94 87 177 91 185 5 8 14 26 19 40 12 29 20 46 53 120 13 30
30 72 38 93 7 20 17 37 21 37 4 0 7 3 7 8 -1 4 0 10 1 15 1 4 3 10 5 15 5 19
39 103 73 181 8 18 16 41 17 50 2 9 4 18 5 21 1 3 2 8 1 13 0 4 3 7 9 7 6 0 9
3 8 8 -3 6 63 193 83 237 17 36 178 525 173 525 -2 0 3 11 12 25 9 14 14 25
11 25 -3 0 1 16 9 35 8 19 12 35 10 35 -3 0 2 17 10 37 9 20 18 46 20 57 2 12
21 77 43 146 22 69 58 193 81 275 23 83 44 157 47 165 3 8 7 20 8 25 2 6 11
39 20 75 9 36 18 70 20 75 1 6 5 17 8 25 5 12 36 132 63 240 2 8 15 60 29 115
14 55 28 107 29 115 2 8 9 35 16 60 7 25 14 52 15 60 2 8 22 92 45 185 23 94
42 178 43 188 1 9 4 17 7 17 3 0 6 8 6 18 1 9 15 80 33 157 18 77 34 149 36
160 1 11 5 27 8 35 4 8 8 26 11 40 2 14 7 43 11 65 3 22 9 47 12 55 4 8 7 23
8 33 2 9 3 18 5 20 1 1 3 11 5 22 6 41 16 89 20 96 3 4 7 27 10 50 3 24 8 52
11 61 6 21 14 54 20 93 3 17 10 50 15 75 5 25 12 59 15 75 10 55 13 70 24 125
6 30 14 71 17 90 6 44 9 59 16 90 4 14 9 41 12 60 2 19 7 45 9 56 2 12 7 37
10 55 3 19 8 45 10 59 3 14 15 84 26 155 12 72 24 144 27 160 3 17 6 41 8 55
2 14 6 45 10 70 4 25 9 61 11 80 3 19 7 46 9 60 2 14 7 47 10 74 3 27 8 65 10
85 3 20 7 56 10 81 3 25 8 68 11 95 25 237 25 576 0 712 -2 10 -7 39 -10 66
-4 26 -11 58 -16 72 -5 14 -8 25 -6 25 2 0 -2 24 -10 53 -8 28 -18 65 -21 82
-3 16 -11 42 -19 57 -8 16 -12 28 -10 28 3 0 -10 38 -29 84 -18 47 -30 87 -27
90 3 4 0 6 -6 6 -7 0 -12 9 -12 20 0 11 -4 20 -10 20 -5 0 -10 7 -10 15 0 18
-84 180 -134 258 -20 31 -36 59 -36 62 0 3 -7 13 -15 23 -9 9 -52 64 -97 122
-136 175 -338 360 -513 472 -122 78 -130 82 -144 84 -8 2 -17 7 -20 12 -10 15
-297 142 -322 142 -4 0 -20 5 -36 12 -15 6 -32 12 -38 13 -5 0 -17 4 -25 7 -8
4 -28 9 -45 12 -49 10 -78 16 -115 26 -19 5 -55 11 -80 14 -25 3 -61 9 -80 12
-19 3 -120 7 -225 9 -170 2 -236 -2 -348 -20 -17 -3 -48 -8 -67 -11 -19 -4
-60 -13 -90 -21 -30 -8 -63 -16 -72 -19 -38 -9 -59 -14 -75 -18 -83 -20 -349
-140 -453 -204 -71 -44 -134 -85 -140 -92 -3 -3 -30 -23 -60 -45 -30 -21 -62
-44 -70 -51 -33 -27 -276 -272 -298 -300 -80 -103 -144 -194 -157 -221 -9 -18
-21 -33 -27 -33 -6 0 -8 -3 -5 -7 4 -3 3 -11 -2 -17 -5 -6 -18 -28 -30 -48
-12 -21 -29 -53 -39 -70 -10 -18 -40 -85 -66 -148 -26 -63 -54 -129 -61 -145
-7 -17 -16 -45 -19 -62 -4 -18 -11 -35 -15 -37 -4 -3 -24 16 -44 42 -20 26
-46 59 -59 73 -13 15 -39 45 -58 68 -19 23 -60 70 -90 104 -62 70 -411 419
-456 456 -16 14 -56 47 -89 75 -33 28 -65 56 -71 61 -7 6 -25 20 -41 32 -23
18 -65 50 -118 90 -5 5 -23 17 -40 27 -16 11 -35 24 -41 30 -7 6 -40 29 -75
51 -109 69 -104 67 -226 136 -67 38 -150 79 -161 79 -6 0 -12 4 -14 8 -3 10
-281 122 -317 129 -14 2 -29 7 -35 11 -6 3 -18 8 -26 9 -8 1 -24 4 -35 5 -11
2 -24 6 -30 10 -10 6 -145 38 -180 42 -74 10 -133 19 -150 23 -22 5 -411 13
-417 8z m57 -3509 c22 -2 54 -7 70 -11 17 -3 38 -7 48 -8 9 -1 17 -4 17 -7 0
-3 8 -6 18 -7 19 -1 37 -6 67 -17 101 -38 137 -53 180 -75 121 -61 255 -159
329 -240 17 -18 50 -54 73 -80 24 -25 43 -52 43 -58 0 -7 4 -13 8 -13 10 0 62
-77 62 -91 0 -5 4 -9 9 -9 10 0 111 -213 111 -234 0 -8 5 -18 10 -21 6 -3 10
-19 10 -34 0 -15 4 -31 9 -36 7 -9 28 -104 46 -215 9 -50 9 -267 1 -320 -4
-25 -14 -76 -22 -115 -8 -38 -17 -83 -21 -100 -3 -16 -9 -34 -13 -40 -4 -5
-11 -23 -15 -40 -10 -37 -9 -34 -24 -70 -23 -55 -56 -120 -63 -123 -5 -2 -8
-8 -8 -14 0 -15 -79 -133 -136 -203 -55 -68 -210 -215 -226 -215 -3 0 -13 -6
-20 -13 -12 -11 -56 -40 -113 -74 -26 -15 -127 -65 -140 -70 -5 -1 -49 -16
-96 -32 -100 -34 -230 -58 -311 -57 -32 1 -58 -2 -58 -6 0 -4 -6 -6 -12 -3 -7
2 -49 6 -93 10 -44 3 -98 11 -120 17 -22 6 -47 12 -55 13 -41 5 -158 75 -209
125 -57 56 -107 123 -113 150 -2 8 -9 21 -16 28 -7 8 -10 18 -7 23 4 5 1 9 -6
9 -7 0 -9 3 -6 6 3 4 2 15 -4 26 -6 11 -12 27 -14 36 -2 9 -11 42 -19 72 -18
68 -29 140 -43 275 -4 33 -7 269 -7 525 -1 409 4 563 20 675 2 17 6 44 8 60 2
17 12 59 21 95 10 36 19 72 20 80 1 8 8 29 15 45 7 17 14 32 15 35 4 19 60
115 78 137 97 118 233 192 381 209 22 2 41 6 43 7 4 5 229 -1 278 -7z"/>
</g>
</svg>
