<svg width="463" height="393" viewBox="0 0 463 393" fill="none" xmlns="http://www.w3.org/2000/svg">
<path fill-rule="evenodd" clip-rule="evenodd" d="M367.936 113.908C395.493 128.654 409.418 160.286 414.578 191.14C419.5 220.571 409 248.706 394.88 275.018C379.074 304.476 362.474 336.399 330.851 347.178C296.511 358.883 256.622 353.46 227.318 332.133C199.176 311.651 188.6 275.652 184.964 241.001C181.742 210.291 189.398 179.17 208.74 155.075C226.342 133.146 254.753 127.204 281.956 120.17C310.886 112.689 341.613 99.8213 367.936 113.908Z" fill="#F2C94C" fill-opacity="0.6"/>
<path d="M332.043 136L416 195.5C418.463 215.318 417.057 225.309 410.5 241.5L306 179.849L332.043 136Z" fill="url(#paint0_linear)"/>
<path fill-rule="evenodd" clip-rule="evenodd" d="M281 114L231 124.245C231.589 137.026 232.628 147.166 234.688 157.249L200.5 184.5C200.588 186.719 200.643 188.774 200.694 190.73C201.349 215.518 201.582 224.305 265.5 349C323.402 363.104 355.129 348.38 387 292C352.227 242.542 349.79 228.379 343.499 191.801C341.083 177.759 338.1 160.413 332.5 136.5L279.991 140.5L279.513 140.675C276.737 135.387 277.409 130.595 281 114Z" fill="url(#paint1_linear)"/>
<path d="M108 188L202 183L229 251.5L108 226V188Z" fill="url(#paint2_linear)"/>
<path d="M34.5 121.5L47.7796 109.295C86.8935 142.029 112.08 160.938 115 187.5L109 226L34.5 121.5Z" fill="#61452C"/>
<path d="M201.738 183.107L234.314 157.076C248.808 181.566 259.327 178.402 280.092 140.511L332.695 136.473C362.993 225.666 352.749 227.666 386.984 292.007C356.734 343.135 332.32 364.678 265.23 349.61C197.177 219.607 203.621 216.834 201.738 183.107Z" fill="url(#paint3_linear)"/>
<path d="M249.572 225.211C249.459 225.252 249.286 225.244 249.052 225.186L241.653 223.245C241.415 223.175 241.229 223.093 241.096 222.999C240.963 222.905 240.865 222.771 240.801 222.595L240.686 222.275C240.622 222.1 240.606 221.936 240.636 221.783C240.678 221.626 240.773 221.436 240.919 221.213L245.377 215.01C245.519 214.816 245.647 214.699 245.76 214.659C245.873 214.618 245.974 214.624 246.064 214.676C246.162 214.712 246.231 214.786 246.272 214.899L246.571 215.727C246.621 215.864 246.624 215.991 246.581 216.106C246.55 216.216 246.477 216.349 246.363 216.504L242.565 221.767L248.849 223.388C249.053 223.442 249.202 223.502 249.297 223.567C249.391 223.632 249.463 223.734 249.513 223.871L249.812 224.699C249.853 224.812 249.849 224.92 249.801 225.022C249.761 225.107 249.685 225.17 249.572 225.211ZM257.123 224.206C255.781 224.691 254.592 224.695 253.555 224.219C252.527 223.726 251.74 222.805 251.196 221.456L250.906 220.71L250.653 219.951C250.209 218.566 250.228 217.361 250.708 216.337C251.197 215.296 252.112 214.533 253.454 214.048C254.357 213.722 255.181 213.609 255.926 213.709C256.67 213.808 257.279 214.042 257.753 214.41C258.238 214.773 258.58 215.188 258.777 215.656C258.835 215.777 258.833 215.891 258.773 215.997C258.712 216.104 258.619 216.181 258.494 216.226L257.591 216.552C257.465 216.597 257.362 216.606 257.281 216.579C257.201 216.551 257.102 216.473 256.985 216.346C256.554 215.821 256.099 215.503 255.62 215.393C255.136 215.27 254.599 215.315 254.01 215.528C253.232 215.808 252.7 216.277 252.412 216.934C252.133 217.573 252.154 218.395 252.474 219.4L252.7 220.084L252.949 220.716C253.349 221.706 253.861 222.358 254.485 222.671C255.108 222.985 255.815 222.999 256.605 222.713C257.195 222.5 257.638 222.198 257.937 221.807C258.23 221.403 258.375 220.862 258.371 220.183C258.379 220.01 258.405 219.887 258.45 219.814C258.49 219.729 258.573 219.663 258.698 219.618L259.601 219.292C259.727 219.247 259.849 219.252 259.968 219.308C260.083 219.352 260.157 219.438 260.19 219.568C260.333 220.041 260.335 220.579 260.199 221.181C260.07 221.767 259.751 222.336 259.241 222.888C258.745 223.436 258.039 223.875 257.123 224.206ZM267.558 220.437C266.179 220.935 264.966 220.934 263.921 220.432C262.887 219.927 262.112 219.037 261.596 217.763L261.285 216.961L261.011 216.146C260.599 214.849 260.636 213.673 261.12 212.619C261.599 211.553 262.523 210.773 263.889 210.279C265.256 209.785 266.465 209.795 267.515 210.309C268.561 210.81 269.34 211.691 269.852 212.952C269.915 213.086 270.018 213.353 270.163 213.754C270.308 214.156 270.399 214.428 270.437 214.57C270.853 215.88 270.819 217.062 270.335 218.115C269.863 219.165 268.938 219.939 267.558 220.437ZM267.035 218.988C267.825 218.703 268.355 218.228 268.626 217.563C268.909 216.894 268.899 216.082 268.597 215.128C268.564 214.998 268.484 214.758 268.357 214.407C268.231 214.056 268.138 213.82 268.08 213.699C267.703 212.772 267.192 212.141 266.547 211.807C265.914 211.469 265.203 211.442 264.413 211.728C263.623 212.013 263.086 212.49 262.803 213.159C262.521 213.829 262.536 214.638 262.851 215.588L263.09 216.309L263.367 217.017C263.732 217.949 264.237 218.581 264.882 218.915C265.528 219.249 266.245 219.274 267.035 218.988ZM277.927 216.692C276.623 217.163 275.485 217.092 274.512 216.479C273.539 215.866 272.799 214.915 272.29 213.624L272.067 213.067L271.882 212.496C271.453 211.19 271.417 209.991 271.774 208.899C272.126 207.793 272.954 207.005 274.258 206.534C275.55 206.067 276.731 206.158 277.801 206.806L276.239 202.48C276.193 202.354 276.195 202.241 276.243 202.138C276.299 202.019 276.39 201.936 276.515 201.891L277.418 201.565C277.543 201.52 277.66 201.527 277.766 201.588C277.881 201.631 277.962 201.716 278.007 201.841L282.518 214.331C282.564 214.457 282.558 214.579 282.502 214.699C282.454 214.801 282.367 214.875 282.242 214.92L281.396 215.226C281.27 215.271 281.15 215.272 281.035 215.229C280.928 215.168 280.852 215.075 280.807 214.95L280.521 214.16C280.134 215.363 279.269 216.207 277.927 216.692ZM277.772 215.025C278.637 214.713 279.181 214.197 279.404 213.479C279.634 212.743 279.625 211.974 279.378 211.17C279.34 211.028 279.261 210.787 279.138 210.449C279.012 210.098 278.917 209.855 278.855 209.722C278.562 208.991 278.091 208.431 277.44 208.043C276.789 207.654 276.044 207.611 275.203 207.915C274.313 208.236 273.761 208.748 273.546 209.449C273.344 210.146 273.387 210.952 273.676 211.869L273.854 212.421C274.71 214.791 276.016 215.659 277.772 215.025ZM289.453 212.528C288.161 212.995 286.984 212.974 285.921 212.464C284.866 211.938 284.052 210.999 283.479 209.647L283.229 209.014L283.023 208.386C282.622 207 282.659 205.768 283.134 204.689C283.621 203.605 284.498 202.835 285.765 202.377C287.157 201.875 288.396 201.93 289.483 202.544C290.565 203.146 291.378 204.199 291.921 205.704L292.037 206.024C292.082 206.149 292.077 206.272 292.021 206.391C291.972 206.493 291.886 206.567 291.76 206.613L285.252 208.964L285.313 209.133C285.645 209.934 286.141 210.542 286.801 210.956C287.469 211.352 288.179 211.415 288.931 211.143C289.508 210.935 289.938 210.652 290.22 210.295C290.51 209.921 290.697 209.577 290.782 209.262C290.841 209.071 290.891 208.954 290.932 208.911C290.981 208.851 291.081 208.793 291.231 208.739L292.153 208.406C292.266 208.365 292.371 208.363 292.469 208.398C292.567 208.434 292.636 208.508 292.677 208.621C292.777 208.897 292.721 209.292 292.51 209.808C292.312 210.319 291.952 210.832 291.429 211.347C290.914 211.845 290.255 212.238 289.453 212.528ZM289.937 205.804L289.917 205.747C289.604 204.882 289.112 204.266 288.441 203.899C287.778 203.515 287.051 203.465 286.261 203.751C285.471 204.036 284.944 204.538 284.679 205.258C284.422 205.96 284.45 206.744 284.763 207.609L284.783 207.666L289.937 205.804ZM295.779 208.521C295.666 208.562 295.561 208.564 295.463 208.529C295.373 208.476 295.308 208.393 295.267 208.281L294.968 207.453C294.918 207.315 294.909 207.191 294.94 207.08C294.971 206.97 295.047 206.829 295.17 206.657L298.949 201.401L292.683 199.772C292.484 199.731 292.337 199.678 292.242 199.613C292.148 199.547 292.076 199.446 292.026 199.308L291.727 198.48C291.686 198.367 291.686 198.268 291.726 198.183C291.774 198.081 291.854 198.009 291.967 197.968C292.08 197.927 292.253 197.936 292.487 197.993L299.88 199.916C300.135 199.994 300.322 200.082 300.443 200.18C300.576 200.274 300.674 200.409 300.738 200.584L300.853 200.904C300.917 201.08 300.927 201.246 300.885 201.403C300.842 201.56 300.752 201.742 300.613 201.948L296.163 208.17C296.02 208.363 295.892 208.48 295.779 208.521Z" fill="#F2F2F2"/>
<path d="M51.9999 98C51.9999 114.016 48.9893 125 31.3382 125C13.6872 125 10.5182 112.016 10.5182 96C10.5182 79.9837 13.6689 76 31.3199 76C48.9709 76 51.9999 81.9837 51.9999 98Z" fill="#61452C"/>
<path d="M52.5 95C52.8974 107.859 51.0154 118.589 45.0976 114.5C39.5747 114.5 31 109.337 31 100.5C31 91.6634 37.4771 78 43 78C48.5112 76.3514 52.4912 84.917 52.5 95Z" fill="url(#paint4_linear)"/>
<path d="M34 54C35.4128 51.3093 38.8679 47.4122 43.5821 45.0134C46.2925 43.6343 48.662 46.4778 47.927 49.4287C45.0159 61.1155 46.8062 72.4776 51 85L38.5265 81C31.7012 59.4792 32.5034 59.4889 34 54Z" fill="url(#paint5_linear)"/>
<path d="M28.8755 93.9068C25.5 101.5 25.5 98.5 15.146 96.3758C4.79208 94.2517 0.964563 91.3871 3.73966 84.0483C6.90281 75.2308 8.70115 79.7456 19.9515 84.1236C29.3913 87.826 31 85.5 28.8755 93.9068Z" fill="url(#paint6_linear)"/>
<path d="M27.8754 106.907C24.4548 115.628 23.5858 113.078 14.146 109.376C4.70611 105.673 -0.681068 105.77 2.73959 97.0483C6.16025 88.3268 9.51153 93.4212 18.9514 97.1236C28.3912 100.826 31.2961 98.1852 27.8754 106.907Z" fill="url(#paint7_linear)"/>
<path d="M27.7932 119.54C24.9403 126.814 24.1707 124.669 16.0362 121.479C7.9018 118.288 3.28039 118.318 6.13331 111.044C8.98623 103.77 11.9096 108.07 20.0441 111.26C28.1785 114.451 30.6461 112.266 27.7932 119.54Z" fill="url(#paint8_linear)"/>
<path d="M36.8754 83.9068C33.5402 89.9596 32.6647 87.6143 23.146 86.3759C13.7061 82.6735 8.31893 82.7699 11.7396 74.0483C15.1602 65.3268 18.5115 70.4212 27.9514 74.1236C37.3912 77.826 40.2961 75.1852 36.8754 83.9068Z" fill="url(#paint9_linear)"/>
<path d="M221.334 27.1276C225.1 21.1531 231.396 17.3741 238.442 16.8903C256.061 15.6804 290.049 15.8773 303 33.5C322.706 60.3155 309.323 98.6672 286 117L243 143.5C232.731 146.856 227.189 147.929 219 143.5C207.348 127.433 198.703 118.535 196 102C195.593 72.2369 212.049 41.8572 221.334 27.1276Z" fill="url(#paint10_linear)"/>
<path d="M284.173 45.1215C273.372 41.3448 241.919 31.1354 218.5 31.5C220.799 24.4871 223.649 21.5332 231.5 18C285.709 11.6221 300.696 19.4983 310 46.5C314.962 64.0117 313.693 72.8066 307.5 87.5L281 109C278.632 105.501 285.425 105.346 277.86 72.1556C277.332 69.8414 277.836 67.4104 279.045 65.3677C281.81 60.6951 284.703 54.2763 286.428 50.2597C287.312 48.2025 286.286 45.8605 284.173 45.1215Z" fill="url(#paint11_linear)"/>
<path d="M306.457 103.143C302.021 111.417 289.87 121.393 283.543 118C277.215 114.607 279.106 99.1317 283.543 90.8572C287.979 82.5826 296.705 78.625 303.033 82.0176C309.361 85.4102 310.894 94.8683 306.457 103.143Z" fill="url(#paint12_linear)"/>
<path d="M227.5 146C220.849 147.527 214.706 143.144 212.5 134.5C220.863 135.532 222.379 134.564 224.962 131.745C226.258 130.33 228.47 130.55 229.718 132.007C234.844 137.994 240.816 138.385 253.5 137.5L242 144L241.901 144.078C237.962 147.191 236.743 148.155 227.5 146Z" fill="url(#paint13_linear)"/>
<path d="M248.5 114.379C247.838 117.626 234.001 123.134 224.801 121.258C215.602 119.382 207.838 111.126 208.5 107.879C209.162 104.632 217.999 107.624 227.199 109.5C236.398 111.376 249.162 111.132 248.5 114.379Z" fill="#F2F2F2"/>
<defs>
<linearGradient id="paint0_linear" x1="354.363" y1="149.258" x2="338.702" y2="213.36" gradientUnits="userSpaceOnUse">
<stop stop-color="#F2C94C"/>
<stop offset="0.838901" stop-color="#EB5757"/>
</linearGradient>
<linearGradient id="paint1_linear" x1="219.469" y1="172.526" x2="246.07" y2="124.189" gradientUnits="userSpaceOnUse">
<stop stop-color="#61452C"/>
<stop offset="1" stop-color="#513A25"/>
</linearGradient>
<linearGradient id="paint2_linear" x1="133.891" y1="183.002" x2="166.483" y2="262.269" gradientUnits="userSpaceOnUse">
<stop stop-color="#F2C94C"/>
<stop offset="0.838901" stop-color="#EB5757"/>
</linearGradient>
<linearGradient id="paint3_linear" x1="216.168" y1="164.491" x2="403.682" y2="239.453" gradientUnits="userSpaceOnUse">
<stop stop-color="#F2C94C"/>
<stop offset="0.838901" stop-color="#EB5757"/>
</linearGradient>
<linearGradient id="paint4_linear" x1="40" y1="102" x2="33.5" y2="105.5" gradientUnits="userSpaceOnUse">
<stop stop-color="#61452C"/>
<stop offset="1" stop-color="#796648"/>
</linearGradient>
<linearGradient id="paint5_linear" x1="43.7667" y1="53.3143" x2="34.7476" y2="50.9606" gradientUnits="userSpaceOnUse">
<stop stop-color="#61452C"/>
<stop offset="1" stop-color="#796648"/>
</linearGradient>
<linearGradient id="paint6_linear" x1="9.35682" y1="89.8343" x2="22.475" y2="99.2482" gradientUnits="userSpaceOnUse">
<stop offset="0.208333" stop-color="#796648"/>
<stop offset="0.447917" stop-color="#705035"/>
</linearGradient>
<linearGradient id="paint7_linear" x1="8.49998" y1="102.5" x2="21.5" y2="112" gradientUnits="userSpaceOnUse">
<stop offset="0.208333" stop-color="#796648"/>
<stop offset="0.447917" stop-color="#705035"/>
</linearGradient>
<linearGradient id="paint8_linear" x1="11.1272" y1="115.666" x2="22.2381" y2="123.925" gradientUnits="userSpaceOnUse">
<stop offset="0.208333" stop-color="#796648"/>
<stop offset="0.447917" stop-color="#705035"/>
</linearGradient>
<linearGradient id="paint9_linear" x1="17.5" y1="79.5" x2="30.5" y2="89" gradientUnits="userSpaceOnUse">
<stop offset="0.208333" stop-color="#796648"/>
<stop offset="0.447917" stop-color="#705035"/>
</linearGradient>
<linearGradient id="paint10_linear" x1="204.5" y1="51" x2="272.5" y2="195" gradientUnits="userSpaceOnUse">
<stop stop-color="#796648"/>
<stop offset="1" stop-color="#61452C"/>
</linearGradient>
<linearGradient id="paint11_linear" x1="265.776" y1="15.9113" x2="265.776" y2="109" gradientUnits="userSpaceOnUse">
<stop stop-color="#4F4F4F"/>
<stop offset="0.53125" stop-color="#333333"/>
</linearGradient>
<linearGradient id="paint12_linear" x1="286.5" y1="97" x2="306.5" y2="104" gradientUnits="userSpaceOnUse">
<stop stop-color="#715B3E"/>
<stop offset="1" stop-color="#523A25"/>
</linearGradient>
<linearGradient id="paint13_linear" x1="209" y1="134.5" x2="233" y2="147.16" gradientUnits="userSpaceOnUse">
<stop stop-color="#4F4F4F"/>
<stop offset="1" stop-color="#333333"/>
</linearGradient>
</defs>
</svg>
