<svg width="22" height="21" viewBox="0 0 22 21" fill="none" xmlns="http://www.w3.org/2000/svg">
<path d="M0.219452 0V21H21.2195V0H0.219452ZM11.6476 16.3781C11.6476 18.4219 10.4476 19.3547 8.69914 19.3547C7.11945 19.3547 6.20539 18.5391 5.73664 17.55L7.34445 16.5797C7.65383 17.1281 7.93508 17.5922 8.61477 17.5922C9.26164 17.5922 9.67414 17.3391 9.67414 16.35V9.64219H11.6476V16.3781ZM16.3163 19.3547C14.4835 19.3547 13.2976 18.4828 12.721 17.3391L14.3288 16.4109C14.7507 17.1 15.3038 17.6109 16.2741 17.6109C17.0898 17.6109 17.6148 17.2031 17.6148 16.6359C17.6148 15.9609 17.0804 15.7219 16.1757 15.3234L15.6835 15.1125C14.2585 14.5078 13.3163 13.7437 13.3163 12.1359C13.3163 10.6547 14.446 9.52969 16.2038 9.52969C17.4601 9.52969 18.3601 9.96562 19.007 11.1094L17.4695 12.0938C17.132 11.4891 16.7663 11.25 16.1991 11.25C15.6226 11.25 15.257 11.6156 15.257 12.0938C15.257 12.6844 15.6226 12.9234 16.471 13.2938L16.9632 13.5047C18.6413 14.2219 19.5835 14.9578 19.5835 16.6078C19.5835 18.3797 18.1866 19.3547 16.3163 19.3547Z" fill="black"/>
</svg>
