<svg width="35" height="35" viewBox="0 0 35 35" fill="none" xmlns="http://www.w3.org/2000/svg">
<path fill-rule="evenodd" clip-rule="evenodd" d="M35 17.499C35 27.164 27.165 34.999 17.5 34.999C7.83502 34.999 0 27.164 0 17.499C0 7.83404 7.83502 -0.000976562 17.5 -0.000976562C27.165 -0.000976562 35 7.83404 35 17.499ZM27.9561 26.1228V18.9079C27.9561 15.0444 25.8928 13.2463 23.1408 13.2463C20.9181 13.2463 19.9267 14.4691 19.3708 15.3245V13.5417H15.1872C15.2433 14.7218 15.1872 26.1225 15.1872 26.1225H19.3705V19.096C19.3705 18.7189 19.3989 18.3455 19.509 18.0766C19.8122 17.3241 20.4988 16.5471 21.6546 16.5471C23.1691 16.5471 23.7731 17.7013 23.7731 19.3914V26.1228H27.9561ZM19.3708 15.3245V15.3657H19.343C19.347 15.3586 19.3522 15.3513 19.3575 15.344C19.3621 15.3376 19.3668 15.3311 19.3708 15.3245ZM8.44397 9.65068C8.44397 8.41659 9.38014 7.47729 10.8111 7.47729C12.2423 7.47729 13.1217 8.41659 13.1495 9.65068C13.1495 10.8586 12.2423 11.825 10.7833 11.825H10.7562C9.353 11.825 8.44397 10.8586 8.44397 9.65068ZM12.8743 26.1228H8.6926V13.5417H12.8743V26.1228Z" fill="#007AB9"/>
</svg>
