<svg width="12" height="21" viewBox="0 0 12 21" fill="none" xmlns="http://www.w3.org/2000/svg">
<path d="M6.64583 18.4775C6.65972 18.6826 6.66667 18.8672 6.66667 19.0312C6.66667 19.5781 6.60069 20.043 6.46875 20.4258C6.33681 20.8086 6.18056 21 6 21C5.81944 21 5.66319 20.8086 5.53125 20.4258C5.39931 20.043 5.33333 19.5781 5.33333 19.0312C5.33333 18.8535 5.34722 18.6689 5.375 18.4775C5.15278 18.2314 4.77083 17.8691 4.22917 17.3906C3.6875 16.9121 3.20486 16.4575 2.78125 16.0269C2.35764 15.5962 1.91667 15.0732 1.45833 14.458C1 13.8428 0.642361 13.1421 0.385417 12.356C0.128472 11.5698 0 10.7324 0 9.84375C0 8.91406 0.131944 8.01855 0.395833 7.15723C0.659722 6.2959 0.993056 5.56104 1.39583 4.95264C1.79861 4.34424 2.25 3.75977 2.75 3.19922C3.25 2.63867 3.71528 2.17725 4.14583 1.81494C4.57639 1.45264 4.96875 1.10742 5.32292 0.779297C5.67708 0.451172 5.90278 0.191406 6 0C6.09722 0.191406 6.32292 0.451172 6.67708 0.779297C7.03125 1.10742 7.42361 1.45264 7.85417 1.81494C8.28472 2.17725 8.75 2.63867 9.25 3.19922C9.75 3.75977 10.2014 4.34424 10.6042 4.95264C11.0069 5.56104 11.3403 6.2959 11.6042 7.15723C11.8681 8.01855 12 8.91406 12 9.84375C12 10.7324 11.8715 11.5698 11.6146 12.356C11.3576 13.1421 11 13.8428 10.5417 14.458C10.0833 15.0732 9.64236 15.5962 9.21875 16.0269C8.79514 16.4575 8.3125 16.9121 7.77083 17.3906C7.22917 17.8691 6.85417 18.2314 6.64583 18.4775Z" fill="black"/>
</svg>
