<svg width="251" height="272" viewBox="0 0 251 272" fill="none" xmlns="http://www.w3.org/2000/svg">
<path fill-rule="evenodd" clip-rule="evenodd" d="M118.975 1.56589C93.7707 5.97155 78.1108 29.1397 57.6628 44.5007C37.6803 59.5121 6.35085 66.0733 0.719452 90.4025C-4.94453 114.872 24.4746 133.037 31.5941 157.125C39.051 182.355 26.9288 212.388 42.9463 233.272C60.5906 256.277 89.9932 269.614 118.975 271.056C148.687 272.535 179.544 261.992 200.715 241.121C220.596 221.523 219.103 190.593 227.569 164.008C235.961 137.655 255.564 113.345 250.031 86.2492C244.279 58.0773 222.327 35.5627 198.155 19.9433C174.834 4.87476 146.336 -3.21658 118.975 1.56589Z" fill="#F2C94C"/>
</svg>
