<svg width="231" height="266" viewBox="0 0 231 266" fill="none" xmlns="http://www.w3.org/2000/svg">
<path fill-rule="evenodd" clip-rule="evenodd" d="M120.549 14.7311C146.979 17.9592 176.618 11.0365 197.377 27.7779C217.886 44.3189 220.309 73.7882 225.807 99.6204C230.729 122.751 233.753 146.05 227.393 168.824C220.826 192.336 208.062 213.502 189.573 229.363C169.916 246.226 146.074 256.361 120.549 260.481C91.0387 265.244 57.3453 272.382 33.2726 254.591C9.2185 236.815 6.85741 202.268 1.78783 172.713C-2.613 147.056 1.98419 122.339 6.18104 96.6478C11.2652 65.5247 3.25701 25.5057 28.8269 7.19117C54.4277 -11.1455 89.3334 10.9184 120.549 14.7311Z" fill="#F2994A"/>
</svg>
