<svg width="286" height="281" viewBox="0 0 286 281" fill="none" xmlns="http://www.w3.org/2000/svg">
<path fill-rule="evenodd" clip-rule="evenodd" d="M148.548 0.891931C173.342 4.16805 191.335 24.2835 210.695 40.0923C227.935 54.1707 243.256 69.2486 255.224 88.0027C268.832 109.326 291.481 131.817 284.792 156.203C277.951 181.14 239.666 181.333 223.98 201.905C206.511 224.814 217.899 270.369 190.62 279.704C163.856 288.863 145.63 246.775 118.768 237.91C93.3501 229.522 62.6444 245.124 40.468 230.152C17.1482 214.408 -2.69006 185.875 0.299266 157.927C3.34232 129.476 41.2556 119.092 55.0305 94.0024C67.2389 71.7657 56.8637 40.0479 74.848 22.142C93.3289 3.74157 122.675 -2.52692 148.548 0.891931Z" fill="#EB5757"/>
</svg>
