<svg width="17" height="16" viewBox="0 0 17 16" fill="none" xmlns="http://www.w3.org/2000/svg">
<g clip-path="url(#clip0)">
<path d="M13.2882 5.53748C13.1195 5.48123 12.9507 5.4281 12.782 5.3781C12.8101 5.26248 12.8351 5.14685 12.8601 5.03123C13.2445 3.16873 12.9913 1.67185 12.1382 1.1781C11.3163 0.706225 9.9757 1.19685 8.61945 2.3781C8.48508 2.49373 8.35383 2.6156 8.22883 2.73748C8.14445 2.65623 8.05695 2.57498 7.96945 2.49685C6.54758 1.23435 5.12258 0.7031 4.26945 1.19998C3.4507 1.67498 3.20695 3.08435 3.5507 4.84685C3.58508 5.02185 3.62258 5.19373 3.66633 5.36873C3.46633 5.42498 3.26945 5.48747 3.08508 5.5531C1.41633 6.13123 0.219452 7.04373 0.219452 7.98748C0.219452 8.96248 1.49445 9.9406 3.22883 10.5344C3.36945 10.5812 3.51008 10.6281 3.65383 10.6687C3.60695 10.8562 3.56633 11.0406 3.52883 11.2312C3.2007 12.9656 3.45695 14.3406 4.2757 14.8125C5.11945 15.3 6.5382 14.8 7.91945 13.5906C8.02883 13.4937 8.1382 13.3937 8.24758 13.2875C8.38508 13.4219 8.52883 13.55 8.67258 13.675C10.0101 14.825 11.332 15.2906 12.1476 14.8187C12.9913 14.3312 13.2663 12.8531 12.9101 11.0531C12.882 10.9156 12.8507 10.775 12.8163 10.6312C12.9163 10.6031 13.0132 10.5718 13.1101 10.5406C14.9132 9.94372 16.2195 8.9781 16.2195 7.98748C16.2195 7.0406 14.9882 6.12185 13.2882 5.53748ZM9.06008 2.88435C10.2226 1.87185 11.307 1.47498 11.8007 1.75935C12.3288 2.06248 12.532 3.28748 12.2007 4.89685C12.1788 5.0031 12.157 5.10623 12.1288 5.20935C11.4351 5.0531 10.732 4.9406 10.0257 4.8781C9.61945 4.29685 9.1757 3.7406 8.69445 3.21873C8.81633 3.1031 8.93508 2.99373 9.06008 2.88435ZM5.44445 9.60935C5.60383 9.88123 5.76633 10.1531 5.9382 10.4187C5.4507 10.3656 4.96633 10.2875 4.4882 10.1844C4.6257 9.73435 4.79758 9.26873 4.99758 8.79373C5.14133 9.06872 5.2882 9.3406 5.44445 9.60935ZM4.49758 5.84998C4.94758 5.74998 5.4257 5.66873 5.92258 5.60623C5.75695 5.8656 5.59445 6.13123 5.44133 6.39998C5.2882 6.6656 5.1382 6.93748 4.99758 7.21248C4.8007 6.74685 4.63508 6.2906 4.49758 5.84998ZM5.35383 8.0031C5.56008 7.57185 5.78508 7.14998 6.02258 6.73435C6.26008 6.31873 6.51633 5.9156 6.78508 5.51873C7.25383 5.48435 7.73195 5.4656 8.21945 5.4656C8.70695 5.4656 9.1882 5.48435 9.65383 5.51873C9.91945 5.91248 10.1726 6.3156 10.4132 6.7281C10.6538 7.1406 10.8788 7.56248 11.0913 7.9906C10.882 8.42185 10.657 8.84685 10.4163 9.2656C10.1788 9.68122 9.9257 10.0844 9.66008 10.4844C9.19445 10.5187 8.71008 10.5344 8.21945 10.5344C7.72883 10.5344 7.25383 10.5187 6.79445 10.4906C6.52258 10.0937 6.26633 9.68748 6.0257 9.27185C5.78508 8.85623 5.5632 8.43435 5.35383 8.0031ZM10.9976 9.6031C11.157 9.3281 11.307 9.04998 11.4538 8.76873C11.6538 9.22185 11.8288 9.68122 11.982 10.1531C11.4976 10.2625 11.007 10.3469 10.5132 10.4031C10.682 10.1406 10.8413 9.87185 10.9976 9.6031ZM11.4476 7.21248C11.3007 6.93748 11.1507 6.66248 10.9945 6.39373C10.8413 6.1281 10.682 5.8656 10.5163 5.60623C11.0195 5.66873 11.5007 5.7531 11.9507 5.85623C11.807 6.31873 11.6382 6.76873 11.4476 7.21248ZM8.2257 3.69685C8.55383 4.0531 8.8632 4.4281 9.1507 4.8156C8.53195 4.78748 7.91008 4.78748 7.29133 4.8156C7.59758 4.41248 7.9132 4.03748 8.2257 3.69685ZM4.6007 1.78123C5.1257 1.47498 6.29133 1.91248 7.51945 2.99998C7.59758 3.06873 7.6757 3.14373 7.75695 3.21873C7.27258 3.7406 6.8257 4.29685 6.41633 4.8781C5.71008 4.9406 5.01008 5.04998 4.31633 5.2031C4.2757 5.04373 4.24133 4.88123 4.20695 4.71873C3.9132 3.20623 4.10695 2.0656 4.6007 1.78123ZM3.83508 10.0187C3.70383 9.98123 3.5757 9.9406 3.44758 9.89685C2.78195 9.68748 2.0257 9.35623 1.47883 8.92185C1.1632 8.7031 0.950702 8.3656 0.891327 7.98748C0.891327 7.4156 1.87883 6.68435 3.30383 6.18748C3.48195 6.12498 3.6632 6.06873 3.84445 6.0156C4.05695 6.69373 4.3132 7.35935 4.61008 8.0031C4.31008 8.65623 4.0507 9.33123 3.83508 10.0187ZM7.47883 13.0812C6.9632 13.5531 6.36633 13.9281 5.71633 14.1844C5.36945 14.35 4.96945 14.3656 4.6132 14.225C4.11633 13.9375 3.91008 12.8344 4.19133 11.35C4.2257 11.175 4.2632 11 4.30695 10.8281C5.00695 10.9781 5.7132 11.0812 6.42883 11.1343C6.84133 11.7187 7.29445 12.2781 7.77883 12.8031C7.67883 12.9 7.57883 12.9937 7.47883 13.0812ZM8.24445 12.3218C7.9257 11.9781 7.60695 11.5969 7.29758 11.1875C7.59758 11.2 7.90695 11.2062 8.21945 11.2062C8.54133 11.2062 8.85695 11.2 9.16945 11.1844C8.88195 11.5812 8.57258 11.9593 8.24445 12.3218ZM12.3288 13.2593C12.3007 13.6406 12.1132 13.9969 11.8132 14.2375C11.3163 14.525 10.257 14.15 9.1132 13.1687C8.98195 13.0562 8.8507 12.9344 8.71633 12.8094C9.19445 12.2812 9.63508 11.7218 10.0351 11.1343C10.7507 11.075 11.4632 10.9656 12.1663 10.8062C12.1976 10.9344 12.2257 11.0625 12.2507 11.1875C12.4038 11.8625 12.4288 12.5656 12.3288 13.2593ZM12.8976 9.89997C12.8101 9.9281 12.7226 9.95623 12.632 9.98123C12.4132 9.29998 12.1445 8.63435 11.8351 7.98748C12.1351 7.34998 12.3882 6.69373 12.6007 6.02185C12.7632 6.06873 12.9195 6.11872 13.0695 6.16873C14.5257 6.66873 15.5476 7.41248 15.5476 7.98123C15.5476 8.59373 14.457 9.38435 12.8976 9.89997ZM8.21945 9.43122C9.01008 9.43122 9.6507 8.7906 9.6507 7.99998C9.6507 7.20935 9.01008 6.56873 8.21945 6.56873C7.42883 6.56873 6.7882 7.20935 6.7882 7.99998C6.7882 8.7906 7.42883 9.43122 8.21945 9.43122Z" fill="black"/>
</g>
<defs>
<clipPath id="clip0">
<rect width="16" height="16" fill="white" transform="translate(0.219452)"/>
</clipPath>
</defs>
</svg>
