<svg width="35" height="35" viewBox="0 0 35 35" fill="none" xmlns="http://www.w3.org/2000/svg">
<g clip-path="url(#clip0)">
<path fill-rule="evenodd" clip-rule="evenodd" d="M35.0007 17.4998C35.0007 27.1647 27.1657 34.9997 17.5008 34.9997C7.83595 34.9997 0.00100708 27.1647 0.00100708 17.4998C0.00100708 7.83495 7.83595 0 17.5008 0C27.1657 0 35.0007 7.83495 35.0007 17.4998ZM25.8168 13.2346C26.6628 13.1341 27.4695 12.9092 28.2194 12.5767C27.6589 13.4155 26.9498 14.152 26.1319 14.7416C26.14 14.9207 26.144 15.1013 26.144 15.2825C26.144 20.8106 21.9364 27.1844 14.2425 27.1844C11.8804 27.1844 9.68112 26.4922 7.83093 25.3049C8.15755 25.3439 8.49133 25.3635 8.82824 25.3635C10.7885 25.3635 12.5919 24.695 14.0238 23.5729C12.1929 23.5389 10.6485 22.3295 10.1163 20.6681C10.3715 20.7167 10.6332 20.7426 10.9033 20.7426C11.2842 20.7426 11.6545 20.6918 12.0052 20.5957C10.092 20.2117 8.64949 18.5212 8.64949 16.4945C8.64949 16.477 8.64949 16.4592 8.64981 16.4414C9.2135 16.7556 9.85893 16.9437 10.5443 16.9652C9.42251 16.2153 8.6835 14.9344 8.6835 13.4835C8.6835 12.717 8.89001 11.998 9.25 11.3803C11.3132 13.9118 14.3956 15.577 17.872 15.7514C17.8003 15.4451 17.7632 15.1259 17.7632 14.7981C17.7632 12.4884 19.6364 10.6151 21.9461 10.6151C23.1499 10.6151 24.2371 11.123 25.0001 11.9356C25.9525 11.7481 26.8481 11.4003 27.6564 10.9208C27.3435 11.8982 26.6806 12.717 25.8168 13.2346Z" fill="#55ACEE"/>
</g>
<defs>
<clipPath id="clip0">
<rect width="35" height="35" fill="white"/>
</clipPath>
</defs>
</svg>
